<?xml version="1.0" standalone="no"?><!DOCTYPE svg PUBLIC "-//W3C//DTD SVG 1.1//EN" "http://www.w3.org/Graphics/SVG/1.1/DTD/svg11.dtd">
<svg x="0.0000mm" y="0.0000mm" width="129.1170mm" height="41.5400mm" viewBox="0.0000 0.0000 129.1170 41.5400" version="1.1" xmlns="http://www.w3.org/2000/svg" shape-rendering="crispEdges">
<title>TBarCode - 11.12.1.16467</title>
<desc>BarCode licensed to MEM:TEC-IT Datenverarbeitung GmbH Internal License</desc>
<g fill="rgb(0%,0%,0%)">
</g>
<g fill="rgb(100%,100%,100%)">
<rect x="0.0000" y="0.0000" width="129.1170" height="41.5400" />
</g>
<g fill="rgb(0%,0%,0%)">
</g>
<g fill="rgb(0%,0%,0%)">
<rect x="0.0000" y="0.0000" width="1.6553" height="31.7406" />
<rect x="2.4830" y="0.0000" width="0.8277" height="31.7406" />
<rect x="4.9660" y="0.0000" width="0.8277" height="31.7406" />
<rect x="9.1044" y="0.0000" width="2.4830" height="31.7406" />
<rect x="12.4151" y="0.0000" width="1.6553" height="31.7406" />
<rect x="14.8981" y="0.0000" width="0.8277" height="31.7406" />
<rect x="18.2088" y="0.0000" width="1.6553" height="31.7406" />
<rect x="21.5195" y="0.0000" width="2.4830" height="31.7406" />
<rect x="25.6579" y="0.0000" width="0.8277" height="31.7406" />
<rect x="27.3132" y="0.0000" width="1.6553" height="31.7406" />
<rect x="30.6239" y="0.0000" width="2.4830" height="31.7406" />
<rect x="34.7623" y="0.0000" width="0.8277" height="31.7406" />
<rect x="36.4176" y="0.0000" width="1.6553" height="31.7406" />
<rect x="39.7283" y="0.0000" width="2.4830" height="31.7406" />
<rect x="43.8667" y="0.0000" width="0.8277" height="31.7406" />
<rect x="45.5220" y="0.0000" width="0.8277" height="31.7406" />
<rect x="48.0050" y="0.0000" width="1.6553" height="31.7406" />
<rect x="50.4881" y="0.0000" width="2.4830" height="31.7406" />
<rect x="54.6264" y="0.0000" width="1.6553" height="31.7406" />
<rect x="57.9371" y="0.0000" width="2.4830" height="31.7406" />
<rect x="62.0755" y="0.0000" width="0.8277" height="31.7406" />
<rect x="63.7308" y="0.0000" width="1.6553" height="31.7406" />
<rect x="67.0415" y="0.0000" width="0.8277" height="31.7406" />
<rect x="69.5245" y="0.0000" width="2.4830" height="31.7406" />
<rect x="72.8352" y="0.0000" width="2.4830" height="31.7406" />
<rect x="76.9736" y="0.0000" width="0.8277" height="31.7406" />
<rect x="79.4566" y="0.0000" width="1.6553" height="31.7406" />
<rect x="81.9396" y="0.0000" width="0.8277" height="31.7406" />
<rect x="84.4227" y="0.0000" width="2.4830" height="31.7406" />
<rect x="87.7333" y="0.0000" width="1.6553" height="31.7406" />
<rect x="91.0440" y="0.0000" width="0.8277" height="31.7406" />
<rect x="92.6994" y="0.0000" width="2.4830" height="31.7406" />
<rect x="96.0101" y="0.0000" width="3.3107" height="31.7406" />
<rect x="100.1484" y="0.0000" width="0.8277" height="31.7406" />
<rect x="102.6315" y="0.0000" width="0.8277" height="31.7406" />
<rect x="105.1145" y="0.0000" width="3.3107" height="31.7406" />
<rect x="109.2528" y="0.0000" width="0.8277" height="31.7406" />
<rect x="110.9082" y="0.0000" width="2.4830" height="31.7406" />
<rect x="114.2189" y="0.0000" width="3.3107" height="31.7406" />
<rect x="118.3572" y="0.0000" width="1.6553" height="31.7406" />
<rect x="122.4956" y="0.0000" width="2.4830" height="31.7406" />
<rect x="125.8063" y="0.0000" width="0.8277" height="31.7406" />
<rect x="127.4617" y="0.0000" width="1.6553" height="31.7406" />
</g>
<g fill="rgb(0%,0%,0%)">
<text x="64.5585" y="39.7026" transform="rotate(360 64.5585,39.7026)" text-anchor="middle" font-family="Arial" font-size="8.8194" >Y222-24:082</text>
</g>
</svg>
