<?xml version="1.0" standalone="no"?><!DOCTYPE svg PUBLIC "-//W3C//DTD SVG 1.1//EN" "http://www.w3.org/Graphics/SVG/1.1/DTD/svg11.dtd">
<svg x="0.0000mm" y="0.0000mm" width="41.5400mm" height="41.5400mm" viewBox="0.0000 0.0000 41.5400 41.5400" version="1.1" xmlns="http://www.w3.org/2000/svg" shape-rendering="crispEdges">
<title>TBarCode - 11.12.1.16467</title>
<desc>BarCode licensed to MEM:TEC-IT Datenverarbeitung GmbH Internal License</desc>
<g fill="rgb(0%,0%,0%)">
</g>
<g fill="rgb(100%,100%,100%)">
<rect x="0.0000" y="0.0000" width="41.5400" height="41.5400" />
</g>
<g fill="rgb(0%,0%,0%)">
</g>
<g fill="rgb(0%,0%,0%)">
<rect x="0.0000" y="0.0000" width="1.6616" height="1.6616" />
<rect x="1.6616" y="0.0000" width="1.6616" height="1.6616" />
<rect x="3.3232" y="0.0000" width="1.6616" height="1.6616" />
<rect x="4.9848" y="0.0000" width="1.6616" height="1.6616" />
<rect x="6.6464" y="0.0000" width="1.6616" height="1.6616" />
<rect x="8.3080" y="0.0000" width="1.6616" height="1.6616" />
<rect x="9.9696" y="0.0000" width="1.6616" height="1.6616" />
<rect x="16.6160" y="0.0000" width="1.6616" height="1.6616" />
<rect x="19.9392" y="0.0000" width="1.6616" height="1.6616" />
<rect x="26.5856" y="0.0000" width="1.6616" height="1.6616" />
<rect x="29.9088" y="0.0000" width="1.6616" height="1.6616" />
<rect x="31.5704" y="0.0000" width="1.6616" height="1.6616" />
<rect x="33.2320" y="0.0000" width="1.6616" height="1.6616" />
<rect x="34.8936" y="0.0000" width="1.6616" height="1.6616" />
<rect x="36.5552" y="0.0000" width="1.6616" height="1.6616" />
<rect x="38.2168" y="0.0000" width="1.6616" height="1.6616" />
<rect x="39.8784" y="0.0000" width="1.6616" height="1.6616" />
</g>
<g fill="rgb(0%,0%,0%)">
<rect x="0.0000" y="1.6616" width="1.6616" height="1.6616" />
<rect x="9.9696" y="1.6616" width="1.6616" height="1.6616" />
<rect x="13.2928" y="1.6616" width="1.6616" height="1.6616" />
<rect x="16.6160" y="1.6616" width="1.6616" height="1.6616" />
<rect x="21.6008" y="1.6616" width="1.6616" height="1.6616" />
<rect x="23.2624" y="1.6616" width="1.6616" height="1.6616" />
<rect x="24.9240" y="1.6616" width="1.6616" height="1.6616" />
<rect x="29.9088" y="1.6616" width="1.6616" height="1.6616" />
<rect x="39.8784" y="1.6616" width="1.6616" height="1.6616" />
</g>
<g fill="rgb(0%,0%,0%)">
<rect x="0.0000" y="3.3232" width="1.6616" height="1.6616" />
<rect x="3.3232" y="3.3232" width="1.6616" height="1.6616" />
<rect x="4.9848" y="3.3232" width="1.6616" height="1.6616" />
<rect x="6.6464" y="3.3232" width="1.6616" height="1.6616" />
<rect x="9.9696" y="3.3232" width="1.6616" height="1.6616" />
<rect x="19.9392" y="3.3232" width="1.6616" height="1.6616" />
<rect x="23.2624" y="3.3232" width="1.6616" height="1.6616" />
<rect x="29.9088" y="3.3232" width="1.6616" height="1.6616" />
<rect x="33.2320" y="3.3232" width="1.6616" height="1.6616" />
<rect x="34.8936" y="3.3232" width="1.6616" height="1.6616" />
<rect x="36.5552" y="3.3232" width="1.6616" height="1.6616" />
<rect x="39.8784" y="3.3232" width="1.6616" height="1.6616" />
</g>
<g fill="rgb(0%,0%,0%)">
<rect x="0.0000" y="4.9848" width="1.6616" height="1.6616" />
<rect x="3.3232" y="4.9848" width="1.6616" height="1.6616" />
<rect x="4.9848" y="4.9848" width="1.6616" height="1.6616" />
<rect x="6.6464" y="4.9848" width="1.6616" height="1.6616" />
<rect x="9.9696" y="4.9848" width="1.6616" height="1.6616" />
<rect x="13.2928" y="4.9848" width="1.6616" height="1.6616" />
<rect x="14.9544" y="4.9848" width="1.6616" height="1.6616" />
<rect x="16.6160" y="4.9848" width="1.6616" height="1.6616" />
<rect x="19.9392" y="4.9848" width="1.6616" height="1.6616" />
<rect x="21.6008" y="4.9848" width="1.6616" height="1.6616" />
<rect x="23.2624" y="4.9848" width="1.6616" height="1.6616" />
<rect x="24.9240" y="4.9848" width="1.6616" height="1.6616" />
<rect x="26.5856" y="4.9848" width="1.6616" height="1.6616" />
<rect x="29.9088" y="4.9848" width="1.6616" height="1.6616" />
<rect x="33.2320" y="4.9848" width="1.6616" height="1.6616" />
<rect x="34.8936" y="4.9848" width="1.6616" height="1.6616" />
<rect x="36.5552" y="4.9848" width="1.6616" height="1.6616" />
<rect x="39.8784" y="4.9848" width="1.6616" height="1.6616" />
</g>
<g fill="rgb(0%,0%,0%)">
<rect x="0.0000" y="6.6464" width="1.6616" height="1.6616" />
<rect x="3.3232" y="6.6464" width="1.6616" height="1.6616" />
<rect x="4.9848" y="6.6464" width="1.6616" height="1.6616" />
<rect x="6.6464" y="6.6464" width="1.6616" height="1.6616" />
<rect x="9.9696" y="6.6464" width="1.6616" height="1.6616" />
<rect x="14.9544" y="6.6464" width="1.6616" height="1.6616" />
<rect x="26.5856" y="6.6464" width="1.6616" height="1.6616" />
<rect x="29.9088" y="6.6464" width="1.6616" height="1.6616" />
<rect x="33.2320" y="6.6464" width="1.6616" height="1.6616" />
<rect x="34.8936" y="6.6464" width="1.6616" height="1.6616" />
<rect x="36.5552" y="6.6464" width="1.6616" height="1.6616" />
<rect x="39.8784" y="6.6464" width="1.6616" height="1.6616" />
</g>
<g fill="rgb(0%,0%,0%)">
<rect x="0.0000" y="8.3080" width="1.6616" height="1.6616" />
<rect x="9.9696" y="8.3080" width="1.6616" height="1.6616" />
<rect x="13.2928" y="8.3080" width="1.6616" height="1.6616" />
<rect x="14.9544" y="8.3080" width="1.6616" height="1.6616" />
<rect x="18.2776" y="8.3080" width="1.6616" height="1.6616" />
<rect x="19.9392" y="8.3080" width="1.6616" height="1.6616" />
<rect x="23.2624" y="8.3080" width="1.6616" height="1.6616" />
<rect x="24.9240" y="8.3080" width="1.6616" height="1.6616" />
<rect x="26.5856" y="8.3080" width="1.6616" height="1.6616" />
<rect x="29.9088" y="8.3080" width="1.6616" height="1.6616" />
<rect x="39.8784" y="8.3080" width="1.6616" height="1.6616" />
</g>
<g fill="rgb(0%,0%,0%)">
<rect x="0.0000" y="9.9696" width="1.6616" height="1.6616" />
<rect x="1.6616" y="9.9696" width="1.6616" height="1.6616" />
<rect x="3.3232" y="9.9696" width="1.6616" height="1.6616" />
<rect x="4.9848" y="9.9696" width="1.6616" height="1.6616" />
<rect x="6.6464" y="9.9696" width="1.6616" height="1.6616" />
<rect x="8.3080" y="9.9696" width="1.6616" height="1.6616" />
<rect x="9.9696" y="9.9696" width="1.6616" height="1.6616" />
<rect x="13.2928" y="9.9696" width="1.6616" height="1.6616" />
<rect x="16.6160" y="9.9696" width="1.6616" height="1.6616" />
<rect x="19.9392" y="9.9696" width="1.6616" height="1.6616" />
<rect x="23.2624" y="9.9696" width="1.6616" height="1.6616" />
<rect x="26.5856" y="9.9696" width="1.6616" height="1.6616" />
<rect x="29.9088" y="9.9696" width="1.6616" height="1.6616" />
<rect x="31.5704" y="9.9696" width="1.6616" height="1.6616" />
<rect x="33.2320" y="9.9696" width="1.6616" height="1.6616" />
<rect x="34.8936" y="9.9696" width="1.6616" height="1.6616" />
<rect x="36.5552" y="9.9696" width="1.6616" height="1.6616" />
<rect x="38.2168" y="9.9696" width="1.6616" height="1.6616" />
<rect x="39.8784" y="9.9696" width="1.6616" height="1.6616" />
</g>
<g fill="rgb(0%,0%,0%)">
<rect x="14.9544" y="11.6312" width="1.6616" height="1.6616" />
<rect x="16.6160" y="11.6312" width="1.6616" height="1.6616" />
<rect x="18.2776" y="11.6312" width="1.6616" height="1.6616" />
<rect x="23.2624" y="11.6312" width="1.6616" height="1.6616" />
<rect x="26.5856" y="11.6312" width="1.6616" height="1.6616" />
</g>
<g fill="rgb(0%,0%,0%)">
<rect x="0.0000" y="13.2928" width="1.6616" height="1.6616" />
<rect x="1.6616" y="13.2928" width="1.6616" height="1.6616" />
<rect x="3.3232" y="13.2928" width="1.6616" height="1.6616" />
<rect x="4.9848" y="13.2928" width="1.6616" height="1.6616" />
<rect x="6.6464" y="13.2928" width="1.6616" height="1.6616" />
<rect x="9.9696" y="13.2928" width="1.6616" height="1.6616" />
<rect x="11.6312" y="13.2928" width="1.6616" height="1.6616" />
<rect x="13.2928" y="13.2928" width="1.6616" height="1.6616" />
<rect x="14.9544" y="13.2928" width="1.6616" height="1.6616" />
<rect x="18.2776" y="13.2928" width="1.6616" height="1.6616" />
<rect x="21.6008" y="13.2928" width="1.6616" height="1.6616" />
<rect x="28.2472" y="13.2928" width="1.6616" height="1.6616" />
<rect x="31.5704" y="13.2928" width="1.6616" height="1.6616" />
<rect x="34.8936" y="13.2928" width="1.6616" height="1.6616" />
<rect x="38.2168" y="13.2928" width="1.6616" height="1.6616" />
</g>
<g fill="rgb(0%,0%,0%)">
<rect x="0.0000" y="14.9544" width="1.6616" height="1.6616" />
<rect x="3.3232" y="14.9544" width="1.6616" height="1.6616" />
<rect x="6.6464" y="14.9544" width="1.6616" height="1.6616" />
<rect x="8.3080" y="14.9544" width="1.6616" height="1.6616" />
<rect x="11.6312" y="14.9544" width="1.6616" height="1.6616" />
<rect x="13.2928" y="14.9544" width="1.6616" height="1.6616" />
<rect x="16.6160" y="14.9544" width="1.6616" height="1.6616" />
<rect x="19.9392" y="14.9544" width="1.6616" height="1.6616" />
<rect x="21.6008" y="14.9544" width="1.6616" height="1.6616" />
<rect x="26.5856" y="14.9544" width="1.6616" height="1.6616" />
<rect x="31.5704" y="14.9544" width="1.6616" height="1.6616" />
<rect x="38.2168" y="14.9544" width="1.6616" height="1.6616" />
</g>
<g fill="rgb(0%,0%,0%)">
<rect x="0.0000" y="16.6160" width="1.6616" height="1.6616" />
<rect x="3.3232" y="16.6160" width="1.6616" height="1.6616" />
<rect x="8.3080" y="16.6160" width="1.6616" height="1.6616" />
<rect x="9.9696" y="16.6160" width="1.6616" height="1.6616" />
<rect x="11.6312" y="16.6160" width="1.6616" height="1.6616" />
<rect x="16.6160" y="16.6160" width="1.6616" height="1.6616" />
<rect x="21.6008" y="16.6160" width="1.6616" height="1.6616" />
<rect x="23.2624" y="16.6160" width="1.6616" height="1.6616" />
<rect x="24.9240" y="16.6160" width="1.6616" height="1.6616" />
<rect x="28.2472" y="16.6160" width="1.6616" height="1.6616" />
<rect x="31.5704" y="16.6160" width="1.6616" height="1.6616" />
<rect x="33.2320" y="16.6160" width="1.6616" height="1.6616" />
<rect x="34.8936" y="16.6160" width="1.6616" height="1.6616" />
<rect x="38.2168" y="16.6160" width="1.6616" height="1.6616" />
<rect x="39.8784" y="16.6160" width="1.6616" height="1.6616" />
</g>
<g fill="rgb(0%,0%,0%)">
<rect x="1.6616" y="18.2776" width="1.6616" height="1.6616" />
<rect x="6.6464" y="18.2776" width="1.6616" height="1.6616" />
<rect x="8.3080" y="18.2776" width="1.6616" height="1.6616" />
<rect x="13.2928" y="18.2776" width="1.6616" height="1.6616" />
<rect x="19.9392" y="18.2776" width="1.6616" height="1.6616" />
<rect x="26.5856" y="18.2776" width="1.6616" height="1.6616" />
<rect x="28.2472" y="18.2776" width="1.6616" height="1.6616" />
<rect x="39.8784" y="18.2776" width="1.6616" height="1.6616" />
</g>
<g fill="rgb(0%,0%,0%)">
<rect x="0.0000" y="19.9392" width="1.6616" height="1.6616" />
<rect x="1.6616" y="19.9392" width="1.6616" height="1.6616" />
<rect x="4.9848" y="19.9392" width="1.6616" height="1.6616" />
<rect x="6.6464" y="19.9392" width="1.6616" height="1.6616" />
<rect x="8.3080" y="19.9392" width="1.6616" height="1.6616" />
<rect x="9.9696" y="19.9392" width="1.6616" height="1.6616" />
<rect x="11.6312" y="19.9392" width="1.6616" height="1.6616" />
<rect x="14.9544" y="19.9392" width="1.6616" height="1.6616" />
<rect x="16.6160" y="19.9392" width="1.6616" height="1.6616" />
<rect x="19.9392" y="19.9392" width="1.6616" height="1.6616" />
<rect x="21.6008" y="19.9392" width="1.6616" height="1.6616" />
<rect x="23.2624" y="19.9392" width="1.6616" height="1.6616" />
<rect x="24.9240" y="19.9392" width="1.6616" height="1.6616" />
<rect x="28.2472" y="19.9392" width="1.6616" height="1.6616" />
<rect x="29.9088" y="19.9392" width="1.6616" height="1.6616" />
<rect x="31.5704" y="19.9392" width="1.6616" height="1.6616" />
<rect x="33.2320" y="19.9392" width="1.6616" height="1.6616" />
<rect x="36.5552" y="19.9392" width="1.6616" height="1.6616" />
<rect x="38.2168" y="19.9392" width="1.6616" height="1.6616" />
<rect x="39.8784" y="19.9392" width="1.6616" height="1.6616" />
</g>
<g fill="rgb(0%,0%,0%)">
<rect x="0.0000" y="21.6008" width="1.6616" height="1.6616" />
<rect x="1.6616" y="21.6008" width="1.6616" height="1.6616" />
<rect x="6.6464" y="21.6008" width="1.6616" height="1.6616" />
<rect x="8.3080" y="21.6008" width="1.6616" height="1.6616" />
<rect x="11.6312" y="21.6008" width="1.6616" height="1.6616" />
<rect x="13.2928" y="21.6008" width="1.6616" height="1.6616" />
<rect x="14.9544" y="21.6008" width="1.6616" height="1.6616" />
<rect x="21.6008" y="21.6008" width="1.6616" height="1.6616" />
<rect x="26.5856" y="21.6008" width="1.6616" height="1.6616" />
<rect x="28.2472" y="21.6008" width="1.6616" height="1.6616" />
<rect x="31.5704" y="21.6008" width="1.6616" height="1.6616" />
<rect x="34.8936" y="21.6008" width="1.6616" height="1.6616" />
<rect x="38.2168" y="21.6008" width="1.6616" height="1.6616" />
</g>
<g fill="rgb(0%,0%,0%)">
<rect x="0.0000" y="23.2624" width="1.6616" height="1.6616" />
<rect x="3.3232" y="23.2624" width="1.6616" height="1.6616" />
<rect x="6.6464" y="23.2624" width="1.6616" height="1.6616" />
<rect x="9.9696" y="23.2624" width="1.6616" height="1.6616" />
<rect x="11.6312" y="23.2624" width="1.6616" height="1.6616" />
<rect x="13.2928" y="23.2624" width="1.6616" height="1.6616" />
<rect x="18.2776" y="23.2624" width="1.6616" height="1.6616" />
<rect x="19.9392" y="23.2624" width="1.6616" height="1.6616" />
<rect x="21.6008" y="23.2624" width="1.6616" height="1.6616" />
<rect x="23.2624" y="23.2624" width="1.6616" height="1.6616" />
<rect x="24.9240" y="23.2624" width="1.6616" height="1.6616" />
<rect x="26.5856" y="23.2624" width="1.6616" height="1.6616" />
<rect x="28.2472" y="23.2624" width="1.6616" height="1.6616" />
<rect x="29.9088" y="23.2624" width="1.6616" height="1.6616" />
<rect x="31.5704" y="23.2624" width="1.6616" height="1.6616" />
<rect x="33.2320" y="23.2624" width="1.6616" height="1.6616" />
<rect x="34.8936" y="23.2624" width="1.6616" height="1.6616" />
<rect x="38.2168" y="23.2624" width="1.6616" height="1.6616" />
<rect x="39.8784" y="23.2624" width="1.6616" height="1.6616" />
</g>
<g fill="rgb(0%,0%,0%)">
<rect x="0.0000" y="24.9240" width="1.6616" height="1.6616" />
<rect x="4.9848" y="24.9240" width="1.6616" height="1.6616" />
<rect x="14.9544" y="24.9240" width="1.6616" height="1.6616" />
<rect x="18.2776" y="24.9240" width="1.6616" height="1.6616" />
<rect x="24.9240" y="24.9240" width="1.6616" height="1.6616" />
<rect x="26.5856" y="24.9240" width="1.6616" height="1.6616" />
<rect x="28.2472" y="24.9240" width="1.6616" height="1.6616" />
<rect x="29.9088" y="24.9240" width="1.6616" height="1.6616" />
<rect x="31.5704" y="24.9240" width="1.6616" height="1.6616" />
<rect x="33.2320" y="24.9240" width="1.6616" height="1.6616" />
<rect x="39.8784" y="24.9240" width="1.6616" height="1.6616" />
</g>
<g fill="rgb(0%,0%,0%)">
<rect x="0.0000" y="26.5856" width="1.6616" height="1.6616" />
<rect x="4.9848" y="26.5856" width="1.6616" height="1.6616" />
<rect x="6.6464" y="26.5856" width="1.6616" height="1.6616" />
<rect x="8.3080" y="26.5856" width="1.6616" height="1.6616" />
<rect x="9.9696" y="26.5856" width="1.6616" height="1.6616" />
<rect x="11.6312" y="26.5856" width="1.6616" height="1.6616" />
<rect x="18.2776" y="26.5856" width="1.6616" height="1.6616" />
<rect x="21.6008" y="26.5856" width="1.6616" height="1.6616" />
<rect x="23.2624" y="26.5856" width="1.6616" height="1.6616" />
<rect x="24.9240" y="26.5856" width="1.6616" height="1.6616" />
<rect x="26.5856" y="26.5856" width="1.6616" height="1.6616" />
<rect x="28.2472" y="26.5856" width="1.6616" height="1.6616" />
<rect x="29.9088" y="26.5856" width="1.6616" height="1.6616" />
<rect x="31.5704" y="26.5856" width="1.6616" height="1.6616" />
<rect x="33.2320" y="26.5856" width="1.6616" height="1.6616" />
<rect x="36.5552" y="26.5856" width="1.6616" height="1.6616" />
</g>
<g fill="rgb(0%,0%,0%)">
<rect x="13.2928" y="28.2472" width="1.6616" height="1.6616" />
<rect x="19.9392" y="28.2472" width="1.6616" height="1.6616" />
<rect x="24.9240" y="28.2472" width="1.6616" height="1.6616" />
<rect x="26.5856" y="28.2472" width="1.6616" height="1.6616" />
<rect x="33.2320" y="28.2472" width="1.6616" height="1.6616" />
<rect x="34.8936" y="28.2472" width="1.6616" height="1.6616" />
</g>
<g fill="rgb(0%,0%,0%)">
<rect x="0.0000" y="29.9088" width="1.6616" height="1.6616" />
<rect x="1.6616" y="29.9088" width="1.6616" height="1.6616" />
<rect x="3.3232" y="29.9088" width="1.6616" height="1.6616" />
<rect x="4.9848" y="29.9088" width="1.6616" height="1.6616" />
<rect x="6.6464" y="29.9088" width="1.6616" height="1.6616" />
<rect x="8.3080" y="29.9088" width="1.6616" height="1.6616" />
<rect x="9.9696" y="29.9088" width="1.6616" height="1.6616" />
<rect x="13.2928" y="29.9088" width="1.6616" height="1.6616" />
<rect x="23.2624" y="29.9088" width="1.6616" height="1.6616" />
<rect x="26.5856" y="29.9088" width="1.6616" height="1.6616" />
<rect x="29.9088" y="29.9088" width="1.6616" height="1.6616" />
<rect x="33.2320" y="29.9088" width="1.6616" height="1.6616" />
<rect x="36.5552" y="29.9088" width="1.6616" height="1.6616" />
<rect x="38.2168" y="29.9088" width="1.6616" height="1.6616" />
<rect x="39.8784" y="29.9088" width="1.6616" height="1.6616" />
</g>
<g fill="rgb(0%,0%,0%)">
<rect x="0.0000" y="31.5704" width="1.6616" height="1.6616" />
<rect x="9.9696" y="31.5704" width="1.6616" height="1.6616" />
<rect x="16.6160" y="31.5704" width="1.6616" height="1.6616" />
<rect x="19.9392" y="31.5704" width="1.6616" height="1.6616" />
<rect x="23.2624" y="31.5704" width="1.6616" height="1.6616" />
<rect x="26.5856" y="31.5704" width="1.6616" height="1.6616" />
<rect x="33.2320" y="31.5704" width="1.6616" height="1.6616" />
<rect x="34.8936" y="31.5704" width="1.6616" height="1.6616" />
<rect x="38.2168" y="31.5704" width="1.6616" height="1.6616" />
</g>
<g fill="rgb(0%,0%,0%)">
<rect x="0.0000" y="33.2320" width="1.6616" height="1.6616" />
<rect x="3.3232" y="33.2320" width="1.6616" height="1.6616" />
<rect x="4.9848" y="33.2320" width="1.6616" height="1.6616" />
<rect x="6.6464" y="33.2320" width="1.6616" height="1.6616" />
<rect x="9.9696" y="33.2320" width="1.6616" height="1.6616" />
<rect x="13.2928" y="33.2320" width="1.6616" height="1.6616" />
<rect x="14.9544" y="33.2320" width="1.6616" height="1.6616" />
<rect x="16.6160" y="33.2320" width="1.6616" height="1.6616" />
<rect x="19.9392" y="33.2320" width="1.6616" height="1.6616" />
<rect x="21.6008" y="33.2320" width="1.6616" height="1.6616" />
<rect x="23.2624" y="33.2320" width="1.6616" height="1.6616" />
<rect x="24.9240" y="33.2320" width="1.6616" height="1.6616" />
<rect x="26.5856" y="33.2320" width="1.6616" height="1.6616" />
<rect x="28.2472" y="33.2320" width="1.6616" height="1.6616" />
<rect x="29.9088" y="33.2320" width="1.6616" height="1.6616" />
<rect x="31.5704" y="33.2320" width="1.6616" height="1.6616" />
<rect x="33.2320" y="33.2320" width="1.6616" height="1.6616" />
<rect x="36.5552" y="33.2320" width="1.6616" height="1.6616" />
<rect x="38.2168" y="33.2320" width="1.6616" height="1.6616" />
<rect x="39.8784" y="33.2320" width="1.6616" height="1.6616" />
</g>
<g fill="rgb(0%,0%,0%)">
<rect x="0.0000" y="34.8936" width="1.6616" height="1.6616" />
<rect x="3.3232" y="34.8936" width="1.6616" height="1.6616" />
<rect x="4.9848" y="34.8936" width="1.6616" height="1.6616" />
<rect x="6.6464" y="34.8936" width="1.6616" height="1.6616" />
<rect x="9.9696" y="34.8936" width="1.6616" height="1.6616" />
<rect x="13.2928" y="34.8936" width="1.6616" height="1.6616" />
<rect x="14.9544" y="34.8936" width="1.6616" height="1.6616" />
<rect x="23.2624" y="34.8936" width="1.6616" height="1.6616" />
<rect x="26.5856" y="34.8936" width="1.6616" height="1.6616" />
<rect x="28.2472" y="34.8936" width="1.6616" height="1.6616" />
<rect x="29.9088" y="34.8936" width="1.6616" height="1.6616" />
<rect x="33.2320" y="34.8936" width="1.6616" height="1.6616" />
<rect x="34.8936" y="34.8936" width="1.6616" height="1.6616" />
<rect x="36.5552" y="34.8936" width="1.6616" height="1.6616" />
<rect x="38.2168" y="34.8936" width="1.6616" height="1.6616" />
<rect x="39.8784" y="34.8936" width="1.6616" height="1.6616" />
</g>
<g fill="rgb(0%,0%,0%)">
<rect x="0.0000" y="36.5552" width="1.6616" height="1.6616" />
<rect x="3.3232" y="36.5552" width="1.6616" height="1.6616" />
<rect x="4.9848" y="36.5552" width="1.6616" height="1.6616" />
<rect x="6.6464" y="36.5552" width="1.6616" height="1.6616" />
<rect x="9.9696" y="36.5552" width="1.6616" height="1.6616" />
<rect x="13.2928" y="36.5552" width="1.6616" height="1.6616" />
<rect x="16.6160" y="36.5552" width="1.6616" height="1.6616" />
<rect x="18.2776" y="36.5552" width="1.6616" height="1.6616" />
<rect x="19.9392" y="36.5552" width="1.6616" height="1.6616" />
<rect x="23.2624" y="36.5552" width="1.6616" height="1.6616" />
<rect x="24.9240" y="36.5552" width="1.6616" height="1.6616" />
<rect x="28.2472" y="36.5552" width="1.6616" height="1.6616" />
<rect x="34.8936" y="36.5552" width="1.6616" height="1.6616" />
<rect x="36.5552" y="36.5552" width="1.6616" height="1.6616" />
<rect x="39.8784" y="36.5552" width="1.6616" height="1.6616" />
</g>
<g fill="rgb(0%,0%,0%)">
<rect x="0.0000" y="38.2168" width="1.6616" height="1.6616" />
<rect x="9.9696" y="38.2168" width="1.6616" height="1.6616" />
<rect x="13.2928" y="38.2168" width="1.6616" height="1.6616" />
<rect x="14.9544" y="38.2168" width="1.6616" height="1.6616" />
<rect x="16.6160" y="38.2168" width="1.6616" height="1.6616" />
<rect x="18.2776" y="38.2168" width="1.6616" height="1.6616" />
<rect x="24.9240" y="38.2168" width="1.6616" height="1.6616" />
<rect x="26.5856" y="38.2168" width="1.6616" height="1.6616" />
<rect x="29.9088" y="38.2168" width="1.6616" height="1.6616" />
<rect x="31.5704" y="38.2168" width="1.6616" height="1.6616" />
<rect x="33.2320" y="38.2168" width="1.6616" height="1.6616" />
<rect x="34.8936" y="38.2168" width="1.6616" height="1.6616" />
<rect x="39.8784" y="38.2168" width="1.6616" height="1.6616" />
</g>
<g fill="rgb(0%,0%,0%)">
<rect x="0.0000" y="39.8784" width="1.6616" height="1.6616" />
<rect x="1.6616" y="39.8784" width="1.6616" height="1.6616" />
<rect x="3.3232" y="39.8784" width="1.6616" height="1.6616" />
<rect x="4.9848" y="39.8784" width="1.6616" height="1.6616" />
<rect x="6.6464" y="39.8784" width="1.6616" height="1.6616" />
<rect x="8.3080" y="39.8784" width="1.6616" height="1.6616" />
<rect x="9.9696" y="39.8784" width="1.6616" height="1.6616" />
<rect x="13.2928" y="39.8784" width="1.6616" height="1.6616" />
<rect x="18.2776" y="39.8784" width="1.6616" height="1.6616" />
<rect x="19.9392" y="39.8784" width="1.6616" height="1.6616" />
<rect x="31.5704" y="39.8784" width="1.6616" height="1.6616" />
<rect x="33.2320" y="39.8784" width="1.6616" height="1.6616" />
<rect x="34.8936" y="39.8784" width="1.6616" height="1.6616" />
<rect x="36.5552" y="39.8784" width="1.6616" height="1.6616" />
<rect x="38.2168" y="39.8784" width="1.6616" height="1.6616" />
<rect x="39.8784" y="39.8784" width="1.6616" height="1.6616" />
</g>
</svg>
