<?xml version="1.0" standalone="no"?><!DOCTYPE svg PUBLIC "-//W3C//DTD SVG 1.1//EN" "http://www.w3.org/Graphics/SVG/1.1/DTD/svg11.dtd">
<svg x="0.0000mm" y="0.0000mm" width="48.1540mm" height="48.1540mm" viewBox="0.0000 0.0000 48.1540 48.1540" version="1.1" xmlns="http://www.w3.org/2000/svg" shape-rendering="crispEdges">
<title>TBarCode - 11.12.1.16467</title>
<desc>BarCode licensed to MEM:TEC-IT Datenverarbeitung GmbH Internal License</desc>
<g fill="rgb(0%,0%,0%)">
</g>
<g fill="rgb(100%,100%,100%)">
<rect x="0.0000" y="0.0000" width="48.1540" height="48.1540" />
</g>
<g fill="rgb(0%,0%,0%)">
</g>
<g fill="rgb(0%,0%,0%)">
<rect x="0.0000" y="0.0000" width="1.6605" height="1.6605" />
<rect x="1.6605" y="0.0000" width="1.6605" height="1.6605" />
<rect x="3.3210" y="0.0000" width="1.6605" height="1.6605" />
<rect x="4.9814" y="0.0000" width="1.6605" height="1.6605" />
<rect x="6.6419" y="0.0000" width="1.6605" height="1.6605" />
<rect x="8.3024" y="0.0000" width="1.6605" height="1.6605" />
<rect x="9.9629" y="0.0000" width="1.6605" height="1.6605" />
<rect x="16.6048" y="0.0000" width="1.6605" height="1.6605" />
<rect x="21.5863" y="0.0000" width="1.6605" height="1.6605" />
<rect x="23.2468" y="0.0000" width="1.6605" height="1.6605" />
<rect x="24.9072" y="0.0000" width="1.6605" height="1.6605" />
<rect x="28.2282" y="0.0000" width="1.6605" height="1.6605" />
<rect x="29.8887" y="0.0000" width="1.6605" height="1.6605" />
<rect x="31.5492" y="0.0000" width="1.6605" height="1.6605" />
<rect x="36.5306" y="0.0000" width="1.6605" height="1.6605" />
<rect x="38.1911" y="0.0000" width="1.6605" height="1.6605" />
<rect x="39.8516" y="0.0000" width="1.6605" height="1.6605" />
<rect x="41.5121" y="0.0000" width="1.6605" height="1.6605" />
<rect x="43.1726" y="0.0000" width="1.6605" height="1.6605" />
<rect x="44.8330" y="0.0000" width="1.6605" height="1.6605" />
<rect x="46.4935" y="0.0000" width="1.6605" height="1.6605" />
</g>
<g fill="rgb(0%,0%,0%)">
<rect x="0.0000" y="1.6605" width="1.6605" height="1.6605" />
<rect x="9.9629" y="1.6605" width="1.6605" height="1.6605" />
<rect x="13.2839" y="1.6605" width="1.6605" height="1.6605" />
<rect x="14.9443" y="1.6605" width="1.6605" height="1.6605" />
<rect x="16.6048" y="1.6605" width="1.6605" height="1.6605" />
<rect x="23.2468" y="1.6605" width="1.6605" height="1.6605" />
<rect x="24.9072" y="1.6605" width="1.6605" height="1.6605" />
<rect x="28.2282" y="1.6605" width="1.6605" height="1.6605" />
<rect x="36.5306" y="1.6605" width="1.6605" height="1.6605" />
<rect x="46.4935" y="1.6605" width="1.6605" height="1.6605" />
</g>
<g fill="rgb(0%,0%,0%)">
<rect x="0.0000" y="3.3210" width="1.6605" height="1.6605" />
<rect x="3.3210" y="3.3210" width="1.6605" height="1.6605" />
<rect x="4.9814" y="3.3210" width="1.6605" height="1.6605" />
<rect x="6.6419" y="3.3210" width="1.6605" height="1.6605" />
<rect x="9.9629" y="3.3210" width="1.6605" height="1.6605" />
<rect x="13.2839" y="3.3210" width="1.6605" height="1.6605" />
<rect x="23.2468" y="3.3210" width="1.6605" height="1.6605" />
<rect x="24.9072" y="3.3210" width="1.6605" height="1.6605" />
<rect x="28.2282" y="3.3210" width="1.6605" height="1.6605" />
<rect x="31.5492" y="3.3210" width="1.6605" height="1.6605" />
<rect x="36.5306" y="3.3210" width="1.6605" height="1.6605" />
<rect x="39.8516" y="3.3210" width="1.6605" height="1.6605" />
<rect x="41.5121" y="3.3210" width="1.6605" height="1.6605" />
<rect x="43.1726" y="3.3210" width="1.6605" height="1.6605" />
<rect x="46.4935" y="3.3210" width="1.6605" height="1.6605" />
</g>
<g fill="rgb(0%,0%,0%)">
<rect x="0.0000" y="4.9814" width="1.6605" height="1.6605" />
<rect x="3.3210" y="4.9814" width="1.6605" height="1.6605" />
<rect x="4.9814" y="4.9814" width="1.6605" height="1.6605" />
<rect x="6.6419" y="4.9814" width="1.6605" height="1.6605" />
<rect x="9.9629" y="4.9814" width="1.6605" height="1.6605" />
<rect x="14.9443" y="4.9814" width="1.6605" height="1.6605" />
<rect x="19.9258" y="4.9814" width="1.6605" height="1.6605" />
<rect x="21.5863" y="4.9814" width="1.6605" height="1.6605" />
<rect x="29.8887" y="4.9814" width="1.6605" height="1.6605" />
<rect x="31.5492" y="4.9814" width="1.6605" height="1.6605" />
<rect x="33.2097" y="4.9814" width="1.6605" height="1.6605" />
<rect x="36.5306" y="4.9814" width="1.6605" height="1.6605" />
<rect x="39.8516" y="4.9814" width="1.6605" height="1.6605" />
<rect x="41.5121" y="4.9814" width="1.6605" height="1.6605" />
<rect x="43.1726" y="4.9814" width="1.6605" height="1.6605" />
<rect x="46.4935" y="4.9814" width="1.6605" height="1.6605" />
</g>
<g fill="rgb(0%,0%,0%)">
<rect x="0.0000" y="6.6419" width="1.6605" height="1.6605" />
<rect x="3.3210" y="6.6419" width="1.6605" height="1.6605" />
<rect x="4.9814" y="6.6419" width="1.6605" height="1.6605" />
<rect x="6.6419" y="6.6419" width="1.6605" height="1.6605" />
<rect x="9.9629" y="6.6419" width="1.6605" height="1.6605" />
<rect x="13.2839" y="6.6419" width="1.6605" height="1.6605" />
<rect x="14.9443" y="6.6419" width="1.6605" height="1.6605" />
<rect x="16.6048" y="6.6419" width="1.6605" height="1.6605" />
<rect x="19.9258" y="6.6419" width="1.6605" height="1.6605" />
<rect x="23.2468" y="6.6419" width="1.6605" height="1.6605" />
<rect x="24.9072" y="6.6419" width="1.6605" height="1.6605" />
<rect x="26.5677" y="6.6419" width="1.6605" height="1.6605" />
<rect x="29.8887" y="6.6419" width="1.6605" height="1.6605" />
<rect x="36.5306" y="6.6419" width="1.6605" height="1.6605" />
<rect x="39.8516" y="6.6419" width="1.6605" height="1.6605" />
<rect x="41.5121" y="6.6419" width="1.6605" height="1.6605" />
<rect x="43.1726" y="6.6419" width="1.6605" height="1.6605" />
<rect x="46.4935" y="6.6419" width="1.6605" height="1.6605" />
</g>
<g fill="rgb(0%,0%,0%)">
<rect x="0.0000" y="8.3024" width="1.6605" height="1.6605" />
<rect x="9.9629" y="8.3024" width="1.6605" height="1.6605" />
<rect x="13.2839" y="8.3024" width="1.6605" height="1.6605" />
<rect x="16.6048" y="8.3024" width="1.6605" height="1.6605" />
<rect x="19.9258" y="8.3024" width="1.6605" height="1.6605" />
<rect x="24.9072" y="8.3024" width="1.6605" height="1.6605" />
<rect x="26.5677" y="8.3024" width="1.6605" height="1.6605" />
<rect x="31.5492" y="8.3024" width="1.6605" height="1.6605" />
<rect x="33.2097" y="8.3024" width="1.6605" height="1.6605" />
<rect x="36.5306" y="8.3024" width="1.6605" height="1.6605" />
<rect x="46.4935" y="8.3024" width="1.6605" height="1.6605" />
</g>
<g fill="rgb(0%,0%,0%)">
<rect x="0.0000" y="9.9629" width="1.6605" height="1.6605" />
<rect x="1.6605" y="9.9629" width="1.6605" height="1.6605" />
<rect x="3.3210" y="9.9629" width="1.6605" height="1.6605" />
<rect x="4.9814" y="9.9629" width="1.6605" height="1.6605" />
<rect x="6.6419" y="9.9629" width="1.6605" height="1.6605" />
<rect x="8.3024" y="9.9629" width="1.6605" height="1.6605" />
<rect x="9.9629" y="9.9629" width="1.6605" height="1.6605" />
<rect x="13.2839" y="9.9629" width="1.6605" height="1.6605" />
<rect x="16.6048" y="9.9629" width="1.6605" height="1.6605" />
<rect x="19.9258" y="9.9629" width="1.6605" height="1.6605" />
<rect x="23.2468" y="9.9629" width="1.6605" height="1.6605" />
<rect x="26.5677" y="9.9629" width="1.6605" height="1.6605" />
<rect x="29.8887" y="9.9629" width="1.6605" height="1.6605" />
<rect x="33.2097" y="9.9629" width="1.6605" height="1.6605" />
<rect x="36.5306" y="9.9629" width="1.6605" height="1.6605" />
<rect x="38.1911" y="9.9629" width="1.6605" height="1.6605" />
<rect x="39.8516" y="9.9629" width="1.6605" height="1.6605" />
<rect x="41.5121" y="9.9629" width="1.6605" height="1.6605" />
<rect x="43.1726" y="9.9629" width="1.6605" height="1.6605" />
<rect x="44.8330" y="9.9629" width="1.6605" height="1.6605" />
<rect x="46.4935" y="9.9629" width="1.6605" height="1.6605" />
</g>
<g fill="rgb(0%,0%,0%)">
<rect x="13.2839" y="11.6234" width="1.6605" height="1.6605" />
<rect x="16.6048" y="11.6234" width="1.6605" height="1.6605" />
<rect x="18.2653" y="11.6234" width="1.6605" height="1.6605" />
<rect x="21.5863" y="11.6234" width="1.6605" height="1.6605" />
<rect x="26.5677" y="11.6234" width="1.6605" height="1.6605" />
<rect x="28.2282" y="11.6234" width="1.6605" height="1.6605" />
<rect x="29.8887" y="11.6234" width="1.6605" height="1.6605" />
<rect x="31.5492" y="11.6234" width="1.6605" height="1.6605" />
</g>
<g fill="rgb(0%,0%,0%)">
<rect x="0.0000" y="13.2839" width="1.6605" height="1.6605" />
<rect x="1.6605" y="13.2839" width="1.6605" height="1.6605" />
<rect x="4.9814" y="13.2839" width="1.6605" height="1.6605" />
<rect x="9.9629" y="13.2839" width="1.6605" height="1.6605" />
<rect x="11.6234" y="13.2839" width="1.6605" height="1.6605" />
<rect x="18.2653" y="13.2839" width="1.6605" height="1.6605" />
<rect x="19.9258" y="13.2839" width="1.6605" height="1.6605" />
<rect x="23.2468" y="13.2839" width="1.6605" height="1.6605" />
<rect x="26.5677" y="13.2839" width="1.6605" height="1.6605" />
<rect x="33.2097" y="13.2839" width="1.6605" height="1.6605" />
<rect x="36.5306" y="13.2839" width="1.6605" height="1.6605" />
<rect x="38.1911" y="13.2839" width="1.6605" height="1.6605" />
<rect x="39.8516" y="13.2839" width="1.6605" height="1.6605" />
<rect x="43.1726" y="13.2839" width="1.6605" height="1.6605" />
<rect x="44.8330" y="13.2839" width="1.6605" height="1.6605" />
</g>
<g fill="rgb(0%,0%,0%)">
<rect x="0.0000" y="14.9443" width="1.6605" height="1.6605" />
<rect x="1.6605" y="14.9443" width="1.6605" height="1.6605" />
<rect x="3.3210" y="14.9443" width="1.6605" height="1.6605" />
<rect x="4.9814" y="14.9443" width="1.6605" height="1.6605" />
<rect x="14.9443" y="14.9443" width="1.6605" height="1.6605" />
<rect x="18.2653" y="14.9443" width="1.6605" height="1.6605" />
<rect x="19.9258" y="14.9443" width="1.6605" height="1.6605" />
<rect x="21.5863" y="14.9443" width="1.6605" height="1.6605" />
<rect x="26.5677" y="14.9443" width="1.6605" height="1.6605" />
<rect x="33.2097" y="14.9443" width="1.6605" height="1.6605" />
<rect x="34.8701" y="14.9443" width="1.6605" height="1.6605" />
<rect x="36.5306" y="14.9443" width="1.6605" height="1.6605" />
<rect x="43.1726" y="14.9443" width="1.6605" height="1.6605" />
<rect x="44.8330" y="14.9443" width="1.6605" height="1.6605" />
<rect x="46.4935" y="14.9443" width="1.6605" height="1.6605" />
</g>
<g fill="rgb(0%,0%,0%)">
<rect x="4.9814" y="16.6048" width="1.6605" height="1.6605" />
<rect x="8.3024" y="16.6048" width="1.6605" height="1.6605" />
<rect x="9.9629" y="16.6048" width="1.6605" height="1.6605" />
<rect x="11.6234" y="16.6048" width="1.6605" height="1.6605" />
<rect x="18.2653" y="16.6048" width="1.6605" height="1.6605" />
<rect x="19.9258" y="16.6048" width="1.6605" height="1.6605" />
<rect x="21.5863" y="16.6048" width="1.6605" height="1.6605" />
<rect x="23.2468" y="16.6048" width="1.6605" height="1.6605" />
<rect x="31.5492" y="16.6048" width="1.6605" height="1.6605" />
<rect x="34.8701" y="16.6048" width="1.6605" height="1.6605" />
<rect x="36.5306" y="16.6048" width="1.6605" height="1.6605" />
<rect x="38.1911" y="16.6048" width="1.6605" height="1.6605" />
<rect x="39.8516" y="16.6048" width="1.6605" height="1.6605" />
<rect x="41.5121" y="16.6048" width="1.6605" height="1.6605" />
<rect x="43.1726" y="16.6048" width="1.6605" height="1.6605" />
<rect x="44.8330" y="16.6048" width="1.6605" height="1.6605" />
</g>
<g fill="rgb(0%,0%,0%)">
<rect x="0.0000" y="18.2653" width="1.6605" height="1.6605" />
<rect x="1.6605" y="18.2653" width="1.6605" height="1.6605" />
<rect x="3.3210" y="18.2653" width="1.6605" height="1.6605" />
<rect x="6.6419" y="18.2653" width="1.6605" height="1.6605" />
<rect x="8.3024" y="18.2653" width="1.6605" height="1.6605" />
<rect x="11.6234" y="18.2653" width="1.6605" height="1.6605" />
<rect x="13.2839" y="18.2653" width="1.6605" height="1.6605" />
<rect x="14.9443" y="18.2653" width="1.6605" height="1.6605" />
<rect x="16.6048" y="18.2653" width="1.6605" height="1.6605" />
<rect x="18.2653" y="18.2653" width="1.6605" height="1.6605" />
<rect x="19.9258" y="18.2653" width="1.6605" height="1.6605" />
<rect x="21.5863" y="18.2653" width="1.6605" height="1.6605" />
<rect x="26.5677" y="18.2653" width="1.6605" height="1.6605" />
<rect x="29.8887" y="18.2653" width="1.6605" height="1.6605" />
<rect x="31.5492" y="18.2653" width="1.6605" height="1.6605" />
<rect x="36.5306" y="18.2653" width="1.6605" height="1.6605" />
<rect x="38.1911" y="18.2653" width="1.6605" height="1.6605" />
<rect x="39.8516" y="18.2653" width="1.6605" height="1.6605" />
<rect x="43.1726" y="18.2653" width="1.6605" height="1.6605" />
</g>
<g fill="rgb(0%,0%,0%)">
<rect x="0.0000" y="19.9258" width="1.6605" height="1.6605" />
<rect x="1.6605" y="19.9258" width="1.6605" height="1.6605" />
<rect x="6.6419" y="19.9258" width="1.6605" height="1.6605" />
<rect x="8.3024" y="19.9258" width="1.6605" height="1.6605" />
<rect x="9.9629" y="19.9258" width="1.6605" height="1.6605" />
<rect x="11.6234" y="19.9258" width="1.6605" height="1.6605" />
<rect x="16.6048" y="19.9258" width="1.6605" height="1.6605" />
<rect x="18.2653" y="19.9258" width="1.6605" height="1.6605" />
<rect x="23.2468" y="19.9258" width="1.6605" height="1.6605" />
<rect x="24.9072" y="19.9258" width="1.6605" height="1.6605" />
<rect x="26.5677" y="19.9258" width="1.6605" height="1.6605" />
<rect x="28.2282" y="19.9258" width="1.6605" height="1.6605" />
<rect x="29.8887" y="19.9258" width="1.6605" height="1.6605" />
<rect x="33.2097" y="19.9258" width="1.6605" height="1.6605" />
<rect x="34.8701" y="19.9258" width="1.6605" height="1.6605" />
<rect x="36.5306" y="19.9258" width="1.6605" height="1.6605" />
<rect x="41.5121" y="19.9258" width="1.6605" height="1.6605" />
</g>
<g fill="rgb(0%,0%,0%)">
<rect x="1.6605" y="21.5863" width="1.6605" height="1.6605" />
<rect x="3.3210" y="21.5863" width="1.6605" height="1.6605" />
<rect x="4.9814" y="21.5863" width="1.6605" height="1.6605" />
<rect x="11.6234" y="21.5863" width="1.6605" height="1.6605" />
<rect x="13.2839" y="21.5863" width="1.6605" height="1.6605" />
<rect x="18.2653" y="21.5863" width="1.6605" height="1.6605" />
<rect x="21.5863" y="21.5863" width="1.6605" height="1.6605" />
<rect x="23.2468" y="21.5863" width="1.6605" height="1.6605" />
<rect x="26.5677" y="21.5863" width="1.6605" height="1.6605" />
<rect x="31.5492" y="21.5863" width="1.6605" height="1.6605" />
<rect x="33.2097" y="21.5863" width="1.6605" height="1.6605" />
<rect x="34.8701" y="21.5863" width="1.6605" height="1.6605" />
<rect x="41.5121" y="21.5863" width="1.6605" height="1.6605" />
<rect x="44.8330" y="21.5863" width="1.6605" height="1.6605" />
</g>
<g fill="rgb(0%,0%,0%)">
<rect x="1.6605" y="23.2468" width="1.6605" height="1.6605" />
<rect x="3.3210" y="23.2468" width="1.6605" height="1.6605" />
<rect x="4.9814" y="23.2468" width="1.6605" height="1.6605" />
<rect x="6.6419" y="23.2468" width="1.6605" height="1.6605" />
<rect x="8.3024" y="23.2468" width="1.6605" height="1.6605" />
<rect x="9.9629" y="23.2468" width="1.6605" height="1.6605" />
<rect x="11.6234" y="23.2468" width="1.6605" height="1.6605" />
<rect x="14.9443" y="23.2468" width="1.6605" height="1.6605" />
<rect x="18.2653" y="23.2468" width="1.6605" height="1.6605" />
<rect x="21.5863" y="23.2468" width="1.6605" height="1.6605" />
<rect x="23.2468" y="23.2468" width="1.6605" height="1.6605" />
<rect x="26.5677" y="23.2468" width="1.6605" height="1.6605" />
<rect x="28.2282" y="23.2468" width="1.6605" height="1.6605" />
<rect x="33.2097" y="23.2468" width="1.6605" height="1.6605" />
<rect x="36.5306" y="23.2468" width="1.6605" height="1.6605" />
<rect x="39.8516" y="23.2468" width="1.6605" height="1.6605" />
<rect x="44.8330" y="23.2468" width="1.6605" height="1.6605" />
<rect x="46.4935" y="23.2468" width="1.6605" height="1.6605" />
</g>
<g fill="rgb(0%,0%,0%)">
<rect x="0.0000" y="24.9072" width="1.6605" height="1.6605" />
<rect x="1.6605" y="24.9072" width="1.6605" height="1.6605" />
<rect x="3.3210" y="24.9072" width="1.6605" height="1.6605" />
<rect x="4.9814" y="24.9072" width="1.6605" height="1.6605" />
<rect x="6.6419" y="24.9072" width="1.6605" height="1.6605" />
<rect x="11.6234" y="24.9072" width="1.6605" height="1.6605" />
<rect x="18.2653" y="24.9072" width="1.6605" height="1.6605" />
<rect x="28.2282" y="24.9072" width="1.6605" height="1.6605" />
<rect x="29.8887" y="24.9072" width="1.6605" height="1.6605" />
<rect x="31.5492" y="24.9072" width="1.6605" height="1.6605" />
<rect x="33.2097" y="24.9072" width="1.6605" height="1.6605" />
<rect x="36.5306" y="24.9072" width="1.6605" height="1.6605" />
<rect x="39.8516" y="24.9072" width="1.6605" height="1.6605" />
</g>
<g fill="rgb(0%,0%,0%)">
<rect x="6.6419" y="26.5677" width="1.6605" height="1.6605" />
<rect x="9.9629" y="26.5677" width="1.6605" height="1.6605" />
<rect x="11.6234" y="26.5677" width="1.6605" height="1.6605" />
<rect x="13.2839" y="26.5677" width="1.6605" height="1.6605" />
<rect x="16.6048" y="26.5677" width="1.6605" height="1.6605" />
<rect x="19.9258" y="26.5677" width="1.6605" height="1.6605" />
<rect x="21.5863" y="26.5677" width="1.6605" height="1.6605" />
<rect x="26.5677" y="26.5677" width="1.6605" height="1.6605" />
<rect x="28.2282" y="26.5677" width="1.6605" height="1.6605" />
<rect x="33.2097" y="26.5677" width="1.6605" height="1.6605" />
<rect x="34.8701" y="26.5677" width="1.6605" height="1.6605" />
<rect x="41.5121" y="26.5677" width="1.6605" height="1.6605" />
</g>
<g fill="rgb(0%,0%,0%)">
<rect x="1.6605" y="28.2282" width="1.6605" height="1.6605" />
<rect x="3.3210" y="28.2282" width="1.6605" height="1.6605" />
<rect x="6.6419" y="28.2282" width="1.6605" height="1.6605" />
<rect x="14.9443" y="28.2282" width="1.6605" height="1.6605" />
<rect x="19.9258" y="28.2282" width="1.6605" height="1.6605" />
<rect x="21.5863" y="28.2282" width="1.6605" height="1.6605" />
<rect x="23.2468" y="28.2282" width="1.6605" height="1.6605" />
<rect x="26.5677" y="28.2282" width="1.6605" height="1.6605" />
<rect x="29.8887" y="28.2282" width="1.6605" height="1.6605" />
<rect x="34.8701" y="28.2282" width="1.6605" height="1.6605" />
<rect x="36.5306" y="28.2282" width="1.6605" height="1.6605" />
<rect x="38.1911" y="28.2282" width="1.6605" height="1.6605" />
<rect x="44.8330" y="28.2282" width="1.6605" height="1.6605" />
<rect x="46.4935" y="28.2282" width="1.6605" height="1.6605" />
</g>
<g fill="rgb(0%,0%,0%)">
<rect x="0.0000" y="29.8887" width="1.6605" height="1.6605" />
<rect x="3.3210" y="29.8887" width="1.6605" height="1.6605" />
<rect x="4.9814" y="29.8887" width="1.6605" height="1.6605" />
<rect x="6.6419" y="29.8887" width="1.6605" height="1.6605" />
<rect x="8.3024" y="29.8887" width="1.6605" height="1.6605" />
<rect x="9.9629" y="29.8887" width="1.6605" height="1.6605" />
<rect x="11.6234" y="29.8887" width="1.6605" height="1.6605" />
<rect x="14.9443" y="29.8887" width="1.6605" height="1.6605" />
<rect x="18.2653" y="29.8887" width="1.6605" height="1.6605" />
<rect x="19.9258" y="29.8887" width="1.6605" height="1.6605" />
<rect x="23.2468" y="29.8887" width="1.6605" height="1.6605" />
<rect x="28.2282" y="29.8887" width="1.6605" height="1.6605" />
<rect x="33.2097" y="29.8887" width="1.6605" height="1.6605" />
<rect x="38.1911" y="29.8887" width="1.6605" height="1.6605" />
<rect x="39.8516" y="29.8887" width="1.6605" height="1.6605" />
<rect x="41.5121" y="29.8887" width="1.6605" height="1.6605" />
<rect x="44.8330" y="29.8887" width="1.6605" height="1.6605" />
<rect x="46.4935" y="29.8887" width="1.6605" height="1.6605" />
</g>
<g fill="rgb(0%,0%,0%)">
<rect x="3.3210" y="31.5492" width="1.6605" height="1.6605" />
<rect x="6.6419" y="31.5492" width="1.6605" height="1.6605" />
<rect x="8.3024" y="31.5492" width="1.6605" height="1.6605" />
<rect x="11.6234" y="31.5492" width="1.6605" height="1.6605" />
<rect x="13.2839" y="31.5492" width="1.6605" height="1.6605" />
<rect x="19.9258" y="31.5492" width="1.6605" height="1.6605" />
<rect x="23.2468" y="31.5492" width="1.6605" height="1.6605" />
<rect x="24.9072" y="31.5492" width="1.6605" height="1.6605" />
<rect x="28.2282" y="31.5492" width="1.6605" height="1.6605" />
<rect x="29.8887" y="31.5492" width="1.6605" height="1.6605" />
<rect x="38.1911" y="31.5492" width="1.6605" height="1.6605" />
<rect x="39.8516" y="31.5492" width="1.6605" height="1.6605" />
<rect x="46.4935" y="31.5492" width="1.6605" height="1.6605" />
</g>
<g fill="rgb(0%,0%,0%)">
<rect x="0.0000" y="33.2097" width="1.6605" height="1.6605" />
<rect x="4.9814" y="33.2097" width="1.6605" height="1.6605" />
<rect x="6.6419" y="33.2097" width="1.6605" height="1.6605" />
<rect x="9.9629" y="33.2097" width="1.6605" height="1.6605" />
<rect x="14.9443" y="33.2097" width="1.6605" height="1.6605" />
<rect x="16.6048" y="33.2097" width="1.6605" height="1.6605" />
<rect x="26.5677" y="33.2097" width="1.6605" height="1.6605" />
<rect x="33.2097" y="33.2097" width="1.6605" height="1.6605" />
<rect x="34.8701" y="33.2097" width="1.6605" height="1.6605" />
<rect x="36.5306" y="33.2097" width="1.6605" height="1.6605" />
<rect x="38.1911" y="33.2097" width="1.6605" height="1.6605" />
<rect x="39.8516" y="33.2097" width="1.6605" height="1.6605" />
<rect x="41.5121" y="33.2097" width="1.6605" height="1.6605" />
<rect x="43.1726" y="33.2097" width="1.6605" height="1.6605" />
<rect x="44.8330" y="33.2097" width="1.6605" height="1.6605" />
</g>
<g fill="rgb(0%,0%,0%)">
<rect x="13.2839" y="34.8701" width="1.6605" height="1.6605" />
<rect x="14.9443" y="34.8701" width="1.6605" height="1.6605" />
<rect x="18.2653" y="34.8701" width="1.6605" height="1.6605" />
<rect x="23.2468" y="34.8701" width="1.6605" height="1.6605" />
<rect x="26.5677" y="34.8701" width="1.6605" height="1.6605" />
<rect x="28.2282" y="34.8701" width="1.6605" height="1.6605" />
<rect x="31.5492" y="34.8701" width="1.6605" height="1.6605" />
<rect x="33.2097" y="34.8701" width="1.6605" height="1.6605" />
<rect x="39.8516" y="34.8701" width="1.6605" height="1.6605" />
<rect x="41.5121" y="34.8701" width="1.6605" height="1.6605" />
<rect x="43.1726" y="34.8701" width="1.6605" height="1.6605" />
<rect x="44.8330" y="34.8701" width="1.6605" height="1.6605" />
<rect x="46.4935" y="34.8701" width="1.6605" height="1.6605" />
</g>
<g fill="rgb(0%,0%,0%)">
<rect x="0.0000" y="36.5306" width="1.6605" height="1.6605" />
<rect x="1.6605" y="36.5306" width="1.6605" height="1.6605" />
<rect x="3.3210" y="36.5306" width="1.6605" height="1.6605" />
<rect x="4.9814" y="36.5306" width="1.6605" height="1.6605" />
<rect x="6.6419" y="36.5306" width="1.6605" height="1.6605" />
<rect x="8.3024" y="36.5306" width="1.6605" height="1.6605" />
<rect x="9.9629" y="36.5306" width="1.6605" height="1.6605" />
<rect x="13.2839" y="36.5306" width="1.6605" height="1.6605" />
<rect x="16.6048" y="36.5306" width="1.6605" height="1.6605" />
<rect x="31.5492" y="36.5306" width="1.6605" height="1.6605" />
<rect x="33.2097" y="36.5306" width="1.6605" height="1.6605" />
<rect x="36.5306" y="36.5306" width="1.6605" height="1.6605" />
<rect x="39.8516" y="36.5306" width="1.6605" height="1.6605" />
<rect x="41.5121" y="36.5306" width="1.6605" height="1.6605" />
<rect x="44.8330" y="36.5306" width="1.6605" height="1.6605" />
</g>
<g fill="rgb(0%,0%,0%)">
<rect x="0.0000" y="38.1911" width="1.6605" height="1.6605" />
<rect x="9.9629" y="38.1911" width="1.6605" height="1.6605" />
<rect x="14.9443" y="38.1911" width="1.6605" height="1.6605" />
<rect x="23.2468" y="38.1911" width="1.6605" height="1.6605" />
<rect x="24.9072" y="38.1911" width="1.6605" height="1.6605" />
<rect x="26.5677" y="38.1911" width="1.6605" height="1.6605" />
<rect x="29.8887" y="38.1911" width="1.6605" height="1.6605" />
<rect x="33.2097" y="38.1911" width="1.6605" height="1.6605" />
<rect x="39.8516" y="38.1911" width="1.6605" height="1.6605" />
<rect x="43.1726" y="38.1911" width="1.6605" height="1.6605" />
</g>
<g fill="rgb(0%,0%,0%)">
<rect x="0.0000" y="39.8516" width="1.6605" height="1.6605" />
<rect x="3.3210" y="39.8516" width="1.6605" height="1.6605" />
<rect x="4.9814" y="39.8516" width="1.6605" height="1.6605" />
<rect x="6.6419" y="39.8516" width="1.6605" height="1.6605" />
<rect x="9.9629" y="39.8516" width="1.6605" height="1.6605" />
<rect x="14.9443" y="39.8516" width="1.6605" height="1.6605" />
<rect x="19.9258" y="39.8516" width="1.6605" height="1.6605" />
<rect x="28.2282" y="39.8516" width="1.6605" height="1.6605" />
<rect x="33.2097" y="39.8516" width="1.6605" height="1.6605" />
<rect x="34.8701" y="39.8516" width="1.6605" height="1.6605" />
<rect x="36.5306" y="39.8516" width="1.6605" height="1.6605" />
<rect x="38.1911" y="39.8516" width="1.6605" height="1.6605" />
<rect x="39.8516" y="39.8516" width="1.6605" height="1.6605" />
<rect x="44.8330" y="39.8516" width="1.6605" height="1.6605" />
<rect x="46.4935" y="39.8516" width="1.6605" height="1.6605" />
</g>
<g fill="rgb(0%,0%,0%)">
<rect x="0.0000" y="41.5121" width="1.6605" height="1.6605" />
<rect x="3.3210" y="41.5121" width="1.6605" height="1.6605" />
<rect x="4.9814" y="41.5121" width="1.6605" height="1.6605" />
<rect x="6.6419" y="41.5121" width="1.6605" height="1.6605" />
<rect x="9.9629" y="41.5121" width="1.6605" height="1.6605" />
<rect x="13.2839" y="41.5121" width="1.6605" height="1.6605" />
<rect x="14.9443" y="41.5121" width="1.6605" height="1.6605" />
<rect x="18.2653" y="41.5121" width="1.6605" height="1.6605" />
<rect x="19.9258" y="41.5121" width="1.6605" height="1.6605" />
<rect x="28.2282" y="41.5121" width="1.6605" height="1.6605" />
<rect x="31.5492" y="41.5121" width="1.6605" height="1.6605" />
<rect x="36.5306" y="41.5121" width="1.6605" height="1.6605" />
<rect x="38.1911" y="41.5121" width="1.6605" height="1.6605" />
<rect x="39.8516" y="41.5121" width="1.6605" height="1.6605" />
<rect x="41.5121" y="41.5121" width="1.6605" height="1.6605" />
<rect x="44.8330" y="41.5121" width="1.6605" height="1.6605" />
</g>
<g fill="rgb(0%,0%,0%)">
<rect x="0.0000" y="43.1726" width="1.6605" height="1.6605" />
<rect x="3.3210" y="43.1726" width="1.6605" height="1.6605" />
<rect x="4.9814" y="43.1726" width="1.6605" height="1.6605" />
<rect x="6.6419" y="43.1726" width="1.6605" height="1.6605" />
<rect x="9.9629" y="43.1726" width="1.6605" height="1.6605" />
<rect x="16.6048" y="43.1726" width="1.6605" height="1.6605" />
<rect x="19.9258" y="43.1726" width="1.6605" height="1.6605" />
<rect x="29.8887" y="43.1726" width="1.6605" height="1.6605" />
<rect x="39.8516" y="43.1726" width="1.6605" height="1.6605" />
<rect x="41.5121" y="43.1726" width="1.6605" height="1.6605" />
<rect x="43.1726" y="43.1726" width="1.6605" height="1.6605" />
<rect x="46.4935" y="43.1726" width="1.6605" height="1.6605" />
</g>
<g fill="rgb(0%,0%,0%)">
<rect x="0.0000" y="44.8330" width="1.6605" height="1.6605" />
<rect x="9.9629" y="44.8330" width="1.6605" height="1.6605" />
<rect x="13.2839" y="44.8330" width="1.6605" height="1.6605" />
<rect x="14.9443" y="44.8330" width="1.6605" height="1.6605" />
<rect x="16.6048" y="44.8330" width="1.6605" height="1.6605" />
<rect x="19.9258" y="44.8330" width="1.6605" height="1.6605" />
<rect x="21.5863" y="44.8330" width="1.6605" height="1.6605" />
<rect x="23.2468" y="44.8330" width="1.6605" height="1.6605" />
<rect x="28.2282" y="44.8330" width="1.6605" height="1.6605" />
<rect x="33.2097" y="44.8330" width="1.6605" height="1.6605" />
<rect x="38.1911" y="44.8330" width="1.6605" height="1.6605" />
<rect x="44.8330" y="44.8330" width="1.6605" height="1.6605" />
</g>
<g fill="rgb(0%,0%,0%)">
<rect x="0.0000" y="46.4935" width="1.6605" height="1.6605" />
<rect x="1.6605" y="46.4935" width="1.6605" height="1.6605" />
<rect x="3.3210" y="46.4935" width="1.6605" height="1.6605" />
<rect x="4.9814" y="46.4935" width="1.6605" height="1.6605" />
<rect x="6.6419" y="46.4935" width="1.6605" height="1.6605" />
<rect x="8.3024" y="46.4935" width="1.6605" height="1.6605" />
<rect x="9.9629" y="46.4935" width="1.6605" height="1.6605" />
<rect x="13.2839" y="46.4935" width="1.6605" height="1.6605" />
<rect x="18.2653" y="46.4935" width="1.6605" height="1.6605" />
<rect x="21.5863" y="46.4935" width="1.6605" height="1.6605" />
<rect x="23.2468" y="46.4935" width="1.6605" height="1.6605" />
<rect x="26.5677" y="46.4935" width="1.6605" height="1.6605" />
<rect x="28.2282" y="46.4935" width="1.6605" height="1.6605" />
<rect x="31.5492" y="46.4935" width="1.6605" height="1.6605" />
<rect x="33.2097" y="46.4935" width="1.6605" height="1.6605" />
<rect x="34.8701" y="46.4935" width="1.6605" height="1.6605" />
<rect x="39.8516" y="46.4935" width="1.6605" height="1.6605" />
<rect x="44.8330" y="46.4935" width="1.6605" height="1.6605" />
</g>
</svg>
