<?xml version="1.0" standalone="no"?><!DOCTYPE svg PUBLIC "-//W3C//DTD SVG 1.1//EN" "http://www.w3.org/Graphics/SVG/1.1/DTD/svg11.dtd">
<svg x="0.0000mm" y="0.0000mm" width="171.1850mm" height="41.5400mm" viewBox="0.0000 0.0000 171.1850 41.5400" version="1.1" xmlns="http://www.w3.org/2000/svg" shape-rendering="crispEdges">
<title>TBarCode - 11.12.1.16467</title>
<desc>BarCode licensed to MEM:TEC-IT Datenverarbeitung GmbH Internal License</desc>
<g fill="rgb(0%,0%,0%)">
</g>
<g fill="rgb(100%,100%,100%)">
<rect x="0.0000" y="0.0000" width="171.1850" height="41.5400" />
</g>
<g fill="rgb(0%,0%,0%)">
</g>
<g fill="rgb(0%,0%,0%)">
<rect x="0.0000" y="0.0000" width="0.8270" height="31.7406" />
<rect x="3.3079" y="0.0000" width="0.8270" height="31.7406" />
<rect x="4.9619" y="0.0000" width="2.4809" height="31.7406" />
<rect x="8.2698" y="0.0000" width="2.4809" height="31.7406" />
<rect x="11.5777" y="0.0000" width="0.8270" height="31.7406" />
<rect x="13.2317" y="0.0000" width="0.8270" height="31.7406" />
<rect x="14.8857" y="0.0000" width="0.8270" height="31.7406" />
<rect x="16.5396" y="0.0000" width="0.8270" height="31.7406" />
<rect x="19.8475" y="0.0000" width="2.4809" height="31.7406" />
<rect x="23.1555" y="0.0000" width="2.4809" height="31.7406" />
<rect x="26.4634" y="0.0000" width="0.8270" height="31.7406" />
<rect x="28.1173" y="0.0000" width="2.4809" height="31.7406" />
<rect x="33.0792" y="0.0000" width="0.8270" height="31.7406" />
<rect x="34.7332" y="0.0000" width="0.8270" height="31.7406" />
<rect x="36.3871" y="0.0000" width="2.4809" height="31.7406" />
<rect x="39.6951" y="0.0000" width="0.8270" height="31.7406" />
<rect x="41.3490" y="0.0000" width="2.4809" height="31.7406" />
<rect x="46.3109" y="0.0000" width="0.8270" height="31.7406" />
<rect x="47.9649" y="0.0000" width="0.8270" height="31.7406" />
<rect x="49.6188" y="0.0000" width="2.4809" height="31.7406" />
<rect x="52.9268" y="0.0000" width="0.8270" height="31.7406" />
<rect x="54.5807" y="0.0000" width="2.4809" height="31.7406" />
<rect x="59.5426" y="0.0000" width="0.8270" height="31.7406" />
<rect x="61.1966" y="0.0000" width="0.8270" height="31.7406" />
<rect x="62.8505" y="0.0000" width="2.4809" height="31.7406" />
<rect x="66.1585" y="0.0000" width="0.8270" height="31.7406" />
<rect x="69.4664" y="0.0000" width="0.8270" height="31.7406" />
<rect x="71.1203" y="0.0000" width="0.8270" height="31.7406" />
<rect x="72.7743" y="0.0000" width="2.4809" height="31.7406" />
<rect x="76.0822" y="0.0000" width="2.4809" height="31.7406" />
<rect x="79.3901" y="0.0000" width="0.8270" height="31.7406" />
<rect x="81.0441" y="0.0000" width="2.4809" height="31.7406" />
<rect x="86.0060" y="0.0000" width="2.4809" height="31.7406" />
<rect x="89.3139" y="0.0000" width="0.8270" height="31.7406" />
<rect x="90.9679" y="0.0000" width="0.8270" height="31.7406" />
<rect x="92.6218" y="0.0000" width="2.4809" height="31.7406" />
<rect x="95.9298" y="0.0000" width="2.4809" height="31.7406" />
<rect x="100.8916" y="0.0000" width="0.8270" height="31.7406" />
<rect x="102.5456" y="0.0000" width="0.8270" height="31.7406" />
<rect x="104.1996" y="0.0000" width="0.8270" height="31.7406" />
<rect x="105.8535" y="0.0000" width="0.8270" height="31.7406" />
<rect x="109.1614" y="0.0000" width="0.8270" height="31.7406" />
<rect x="110.8154" y="0.0000" width="0.8270" height="31.7406" />
<rect x="112.4694" y="0.0000" width="2.4809" height="31.7406" />
<rect x="115.7773" y="0.0000" width="2.4809" height="31.7406" />
<rect x="119.0852" y="0.0000" width="2.4809" height="31.7406" />
<rect x="122.3931" y="0.0000" width="0.8270" height="31.7406" />
<rect x="125.7011" y="0.0000" width="2.4809" height="31.7406" />
<rect x="129.0090" y="0.0000" width="0.8270" height="31.7406" />
<rect x="130.6629" y="0.0000" width="0.8270" height="31.7406" />
<rect x="132.3169" y="0.0000" width="0.8270" height="31.7406" />
<rect x="133.9709" y="0.0000" width="2.4809" height="31.7406" />
<rect x="138.9328" y="0.0000" width="2.4809" height="31.7406" />
<rect x="142.2407" y="0.0000" width="0.8270" height="31.7406" />
<rect x="143.8946" y="0.0000" width="0.8270" height="31.7406" />
<rect x="145.5486" y="0.0000" width="2.4809" height="31.7406" />
<rect x="148.8565" y="0.0000" width="0.8270" height="31.7406" />
<rect x="152.1644" y="0.0000" width="0.8270" height="31.7406" />
<rect x="153.8184" y="0.0000" width="2.4809" height="31.7406" />
<rect x="157.1263" y="0.0000" width="0.8270" height="31.7406" />
<rect x="158.7803" y="0.0000" width="0.8270" height="31.7406" />
<rect x="162.0882" y="0.0000" width="0.8270" height="31.7406" />
<rect x="163.7422" y="0.0000" width="2.4809" height="31.7406" />
<rect x="167.0501" y="0.0000" width="2.4809" height="31.7406" />
<rect x="170.3580" y="0.0000" width="0.8270" height="31.7406" />
</g>
<g fill="rgb(0%,0%,0%)">
<text x="85.5925" y="39.7026" transform="rotate(360 85.5925,39.7026)" text-anchor="middle" font-family="Arial" font-size="8.8194" >G222-63-568</text>
</g>
</svg>
