<?xml version="1.0" standalone="no"?><!DOCTYPE svg PUBLIC "-//W3C//DTD SVG 1.1//EN" "http://www.w3.org/Graphics/SVG/1.1/DTD/svg11.dtd">
<svg x="0.0000mm" y="0.0000mm" width="34.9250mm" height="34.9250mm" viewBox="0.0000 0.0000 34.9250 34.9250" version="1.1" xmlns="http://www.w3.org/2000/svg" shape-rendering="crispEdges">
<title>TBarCode - 11.12.1.16467</title>
<desc>BarCode licensed to MEM:TEC-IT Datenverarbeitung GmbH Internal License</desc>
<g fill="rgb(0%,0%,0%)">
</g>
<g fill="rgb(100%,100%,100%)">
<rect x="0.0000" y="0.0000" width="34.9250" height="34.9250" />
</g>
<g fill="rgb(0%,0%,0%)">
</g>
<g fill="rgb(0%,0%,0%)">
<rect x="0.0000" y="0.0000" width="1.6631" height="1.6631" />
<rect x="1.6631" y="0.0000" width="1.6631" height="1.6631" />
<rect x="3.3262" y="0.0000" width="1.6631" height="1.6631" />
<rect x="4.9893" y="0.0000" width="1.6631" height="1.6631" />
<rect x="6.6524" y="0.0000" width="1.6631" height="1.6631" />
<rect x="8.3155" y="0.0000" width="1.6631" height="1.6631" />
<rect x="9.9786" y="0.0000" width="1.6631" height="1.6631" />
<rect x="14.9679" y="0.0000" width="1.6631" height="1.6631" />
<rect x="18.2940" y="0.0000" width="1.6631" height="1.6631" />
<rect x="19.9571" y="0.0000" width="1.6631" height="1.6631" />
<rect x="23.2833" y="0.0000" width="1.6631" height="1.6631" />
<rect x="24.9464" y="0.0000" width="1.6631" height="1.6631" />
<rect x="26.6095" y="0.0000" width="1.6631" height="1.6631" />
<rect x="28.2726" y="0.0000" width="1.6631" height="1.6631" />
<rect x="29.9357" y="0.0000" width="1.6631" height="1.6631" />
<rect x="31.5988" y="0.0000" width="1.6631" height="1.6631" />
<rect x="33.2619" y="0.0000" width="1.6631" height="1.6631" />
</g>
<g fill="rgb(0%,0%,0%)">
<rect x="0.0000" y="1.6631" width="1.6631" height="1.6631" />
<rect x="9.9786" y="1.6631" width="1.6631" height="1.6631" />
<rect x="14.9679" y="1.6631" width="1.6631" height="1.6631" />
<rect x="16.6310" y="1.6631" width="1.6631" height="1.6631" />
<rect x="18.2940" y="1.6631" width="1.6631" height="1.6631" />
<rect x="23.2833" y="1.6631" width="1.6631" height="1.6631" />
<rect x="33.2619" y="1.6631" width="1.6631" height="1.6631" />
</g>
<g fill="rgb(0%,0%,0%)">
<rect x="0.0000" y="3.3262" width="1.6631" height="1.6631" />
<rect x="3.3262" y="3.3262" width="1.6631" height="1.6631" />
<rect x="4.9893" y="3.3262" width="1.6631" height="1.6631" />
<rect x="6.6524" y="3.3262" width="1.6631" height="1.6631" />
<rect x="9.9786" y="3.3262" width="1.6631" height="1.6631" />
<rect x="13.3048" y="3.3262" width="1.6631" height="1.6631" />
<rect x="14.9679" y="3.3262" width="1.6631" height="1.6631" />
<rect x="18.2940" y="3.3262" width="1.6631" height="1.6631" />
<rect x="19.9571" y="3.3262" width="1.6631" height="1.6631" />
<rect x="23.2833" y="3.3262" width="1.6631" height="1.6631" />
<rect x="26.6095" y="3.3262" width="1.6631" height="1.6631" />
<rect x="28.2726" y="3.3262" width="1.6631" height="1.6631" />
<rect x="29.9357" y="3.3262" width="1.6631" height="1.6631" />
<rect x="33.2619" y="3.3262" width="1.6631" height="1.6631" />
</g>
<g fill="rgb(0%,0%,0%)">
<rect x="0.0000" y="4.9893" width="1.6631" height="1.6631" />
<rect x="3.3262" y="4.9893" width="1.6631" height="1.6631" />
<rect x="4.9893" y="4.9893" width="1.6631" height="1.6631" />
<rect x="6.6524" y="4.9893" width="1.6631" height="1.6631" />
<rect x="9.9786" y="4.9893" width="1.6631" height="1.6631" />
<rect x="14.9679" y="4.9893" width="1.6631" height="1.6631" />
<rect x="18.2940" y="4.9893" width="1.6631" height="1.6631" />
<rect x="23.2833" y="4.9893" width="1.6631" height="1.6631" />
<rect x="26.6095" y="4.9893" width="1.6631" height="1.6631" />
<rect x="28.2726" y="4.9893" width="1.6631" height="1.6631" />
<rect x="29.9357" y="4.9893" width="1.6631" height="1.6631" />
<rect x="33.2619" y="4.9893" width="1.6631" height="1.6631" />
</g>
<g fill="rgb(0%,0%,0%)">
<rect x="0.0000" y="6.6524" width="1.6631" height="1.6631" />
<rect x="3.3262" y="6.6524" width="1.6631" height="1.6631" />
<rect x="4.9893" y="6.6524" width="1.6631" height="1.6631" />
<rect x="6.6524" y="6.6524" width="1.6631" height="1.6631" />
<rect x="9.9786" y="6.6524" width="1.6631" height="1.6631" />
<rect x="16.6310" y="6.6524" width="1.6631" height="1.6631" />
<rect x="19.9571" y="6.6524" width="1.6631" height="1.6631" />
<rect x="23.2833" y="6.6524" width="1.6631" height="1.6631" />
<rect x="26.6095" y="6.6524" width="1.6631" height="1.6631" />
<rect x="28.2726" y="6.6524" width="1.6631" height="1.6631" />
<rect x="29.9357" y="6.6524" width="1.6631" height="1.6631" />
<rect x="33.2619" y="6.6524" width="1.6631" height="1.6631" />
</g>
<g fill="rgb(0%,0%,0%)">
<rect x="0.0000" y="8.3155" width="1.6631" height="1.6631" />
<rect x="9.9786" y="8.3155" width="1.6631" height="1.6631" />
<rect x="19.9571" y="8.3155" width="1.6631" height="1.6631" />
<rect x="23.2833" y="8.3155" width="1.6631" height="1.6631" />
<rect x="33.2619" y="8.3155" width="1.6631" height="1.6631" />
</g>
<g fill="rgb(0%,0%,0%)">
<rect x="0.0000" y="9.9786" width="1.6631" height="1.6631" />
<rect x="1.6631" y="9.9786" width="1.6631" height="1.6631" />
<rect x="3.3262" y="9.9786" width="1.6631" height="1.6631" />
<rect x="4.9893" y="9.9786" width="1.6631" height="1.6631" />
<rect x="6.6524" y="9.9786" width="1.6631" height="1.6631" />
<rect x="8.3155" y="9.9786" width="1.6631" height="1.6631" />
<rect x="9.9786" y="9.9786" width="1.6631" height="1.6631" />
<rect x="13.3048" y="9.9786" width="1.6631" height="1.6631" />
<rect x="16.6310" y="9.9786" width="1.6631" height="1.6631" />
<rect x="19.9571" y="9.9786" width="1.6631" height="1.6631" />
<rect x="23.2833" y="9.9786" width="1.6631" height="1.6631" />
<rect x="24.9464" y="9.9786" width="1.6631" height="1.6631" />
<rect x="26.6095" y="9.9786" width="1.6631" height="1.6631" />
<rect x="28.2726" y="9.9786" width="1.6631" height="1.6631" />
<rect x="29.9357" y="9.9786" width="1.6631" height="1.6631" />
<rect x="31.5988" y="9.9786" width="1.6631" height="1.6631" />
<rect x="33.2619" y="9.9786" width="1.6631" height="1.6631" />
</g>
<g fill="rgb(0%,0%,0%)">
<rect x="13.3048" y="11.6417" width="1.6631" height="1.6631" />
<rect x="14.9679" y="11.6417" width="1.6631" height="1.6631" />
<rect x="18.2940" y="11.6417" width="1.6631" height="1.6631" />
<rect x="19.9571" y="11.6417" width="1.6631" height="1.6631" />
</g>
<g fill="rgb(0%,0%,0%)">
<rect x="0.0000" y="13.3048" width="1.6631" height="1.6631" />
<rect x="1.6631" y="13.3048" width="1.6631" height="1.6631" />
<rect x="3.3262" y="13.3048" width="1.6631" height="1.6631" />
<rect x="6.6524" y="13.3048" width="1.6631" height="1.6631" />
<rect x="8.3155" y="13.3048" width="1.6631" height="1.6631" />
<rect x="9.9786" y="13.3048" width="1.6631" height="1.6631" />
<rect x="11.6417" y="13.3048" width="1.6631" height="1.6631" />
<rect x="13.3048" y="13.3048" width="1.6631" height="1.6631" />
<rect x="14.9679" y="13.3048" width="1.6631" height="1.6631" />
<rect x="16.6310" y="13.3048" width="1.6631" height="1.6631" />
<rect x="18.2940" y="13.3048" width="1.6631" height="1.6631" />
<rect x="21.6202" y="13.3048" width="1.6631" height="1.6631" />
<rect x="23.2833" y="13.3048" width="1.6631" height="1.6631" />
<rect x="29.9357" y="13.3048" width="1.6631" height="1.6631" />
</g>
<g fill="rgb(0%,0%,0%)">
<rect x="0.0000" y="14.9679" width="1.6631" height="1.6631" />
<rect x="1.6631" y="14.9679" width="1.6631" height="1.6631" />
<rect x="4.9893" y="14.9679" width="1.6631" height="1.6631" />
<rect x="6.6524" y="14.9679" width="1.6631" height="1.6631" />
<rect x="8.3155" y="14.9679" width="1.6631" height="1.6631" />
<rect x="14.9679" y="14.9679" width="1.6631" height="1.6631" />
<rect x="16.6310" y="14.9679" width="1.6631" height="1.6631" />
<rect x="23.2833" y="14.9679" width="1.6631" height="1.6631" />
<rect x="29.9357" y="14.9679" width="1.6631" height="1.6631" />
<rect x="31.5988" y="14.9679" width="1.6631" height="1.6631" />
<rect x="33.2619" y="14.9679" width="1.6631" height="1.6631" />
</g>
<g fill="rgb(0%,0%,0%)">
<rect x="4.9893" y="16.6310" width="1.6631" height="1.6631" />
<rect x="6.6524" y="16.6310" width="1.6631" height="1.6631" />
<rect x="8.3155" y="16.6310" width="1.6631" height="1.6631" />
<rect x="9.9786" y="16.6310" width="1.6631" height="1.6631" />
<rect x="11.6417" y="16.6310" width="1.6631" height="1.6631" />
<rect x="19.9571" y="16.6310" width="1.6631" height="1.6631" />
<rect x="26.6095" y="16.6310" width="1.6631" height="1.6631" />
<rect x="28.2726" y="16.6310" width="1.6631" height="1.6631" />
<rect x="31.5988" y="16.6310" width="1.6631" height="1.6631" />
<rect x="33.2619" y="16.6310" width="1.6631" height="1.6631" />
</g>
<g fill="rgb(0%,0%,0%)">
<rect x="0.0000" y="18.2940" width="1.6631" height="1.6631" />
<rect x="8.3155" y="18.2940" width="1.6631" height="1.6631" />
<rect x="13.3048" y="18.2940" width="1.6631" height="1.6631" />
<rect x="23.2833" y="18.2940" width="1.6631" height="1.6631" />
</g>
<g fill="rgb(0%,0%,0%)">
<rect x="1.6631" y="19.9571" width="1.6631" height="1.6631" />
<rect x="3.3262" y="19.9571" width="1.6631" height="1.6631" />
<rect x="6.6524" y="19.9571" width="1.6631" height="1.6631" />
<rect x="8.3155" y="19.9571" width="1.6631" height="1.6631" />
<rect x="9.9786" y="19.9571" width="1.6631" height="1.6631" />
<rect x="11.6417" y="19.9571" width="1.6631" height="1.6631" />
<rect x="13.3048" y="19.9571" width="1.6631" height="1.6631" />
<rect x="14.9679" y="19.9571" width="1.6631" height="1.6631" />
<rect x="19.9571" y="19.9571" width="1.6631" height="1.6631" />
<rect x="23.2833" y="19.9571" width="1.6631" height="1.6631" />
<rect x="26.6095" y="19.9571" width="1.6631" height="1.6631" />
<rect x="31.5988" y="19.9571" width="1.6631" height="1.6631" />
</g>
<g fill="rgb(0%,0%,0%)">
<rect x="13.3048" y="21.6202" width="1.6631" height="1.6631" />
<rect x="16.6310" y="21.6202" width="1.6631" height="1.6631" />
<rect x="18.2940" y="21.6202" width="1.6631" height="1.6631" />
<rect x="21.6202" y="21.6202" width="1.6631" height="1.6631" />
<rect x="24.9464" y="21.6202" width="1.6631" height="1.6631" />
<rect x="31.5988" y="21.6202" width="1.6631" height="1.6631" />
<rect x="33.2619" y="21.6202" width="1.6631" height="1.6631" />
</g>
<g fill="rgb(0%,0%,0%)">
<rect x="0.0000" y="23.2833" width="1.6631" height="1.6631" />
<rect x="1.6631" y="23.2833" width="1.6631" height="1.6631" />
<rect x="3.3262" y="23.2833" width="1.6631" height="1.6631" />
<rect x="4.9893" y="23.2833" width="1.6631" height="1.6631" />
<rect x="6.6524" y="23.2833" width="1.6631" height="1.6631" />
<rect x="8.3155" y="23.2833" width="1.6631" height="1.6631" />
<rect x="9.9786" y="23.2833" width="1.6631" height="1.6631" />
<rect x="13.3048" y="23.2833" width="1.6631" height="1.6631" />
<rect x="14.9679" y="23.2833" width="1.6631" height="1.6631" />
<rect x="16.6310" y="23.2833" width="1.6631" height="1.6631" />
<rect x="18.2940" y="23.2833" width="1.6631" height="1.6631" />
<rect x="21.6202" y="23.2833" width="1.6631" height="1.6631" />
<rect x="23.2833" y="23.2833" width="1.6631" height="1.6631" />
<rect x="24.9464" y="23.2833" width="1.6631" height="1.6631" />
<rect x="29.9357" y="23.2833" width="1.6631" height="1.6631" />
<rect x="31.5988" y="23.2833" width="1.6631" height="1.6631" />
<rect x="33.2619" y="23.2833" width="1.6631" height="1.6631" />
</g>
<g fill="rgb(0%,0%,0%)">
<rect x="0.0000" y="24.9464" width="1.6631" height="1.6631" />
<rect x="9.9786" y="24.9464" width="1.6631" height="1.6631" />
<rect x="13.3048" y="24.9464" width="1.6631" height="1.6631" />
<rect x="14.9679" y="24.9464" width="1.6631" height="1.6631" />
<rect x="16.6310" y="24.9464" width="1.6631" height="1.6631" />
<rect x="18.2940" y="24.9464" width="1.6631" height="1.6631" />
<rect x="19.9571" y="24.9464" width="1.6631" height="1.6631" />
<rect x="21.6202" y="24.9464" width="1.6631" height="1.6631" />
<rect x="24.9464" y="24.9464" width="1.6631" height="1.6631" />
<rect x="26.6095" y="24.9464" width="1.6631" height="1.6631" />
</g>
<g fill="rgb(0%,0%,0%)">
<rect x="0.0000" y="26.6095" width="1.6631" height="1.6631" />
<rect x="3.3262" y="26.6095" width="1.6631" height="1.6631" />
<rect x="4.9893" y="26.6095" width="1.6631" height="1.6631" />
<rect x="6.6524" y="26.6095" width="1.6631" height="1.6631" />
<rect x="9.9786" y="26.6095" width="1.6631" height="1.6631" />
<rect x="13.3048" y="26.6095" width="1.6631" height="1.6631" />
<rect x="16.6310" y="26.6095" width="1.6631" height="1.6631" />
<rect x="18.2940" y="26.6095" width="1.6631" height="1.6631" />
<rect x="21.6202" y="26.6095" width="1.6631" height="1.6631" />
<rect x="23.2833" y="26.6095" width="1.6631" height="1.6631" />
<rect x="24.9464" y="26.6095" width="1.6631" height="1.6631" />
<rect x="31.5988" y="26.6095" width="1.6631" height="1.6631" />
<rect x="33.2619" y="26.6095" width="1.6631" height="1.6631" />
</g>
<g fill="rgb(0%,0%,0%)">
<rect x="0.0000" y="28.2726" width="1.6631" height="1.6631" />
<rect x="3.3262" y="28.2726" width="1.6631" height="1.6631" />
<rect x="4.9893" y="28.2726" width="1.6631" height="1.6631" />
<rect x="6.6524" y="28.2726" width="1.6631" height="1.6631" />
<rect x="9.9786" y="28.2726" width="1.6631" height="1.6631" />
<rect x="16.6310" y="28.2726" width="1.6631" height="1.6631" />
<rect x="23.2833" y="28.2726" width="1.6631" height="1.6631" />
<rect x="24.9464" y="28.2726" width="1.6631" height="1.6631" />
<rect x="31.5988" y="28.2726" width="1.6631" height="1.6631" />
</g>
<g fill="rgb(0%,0%,0%)">
<rect x="0.0000" y="29.9357" width="1.6631" height="1.6631" />
<rect x="3.3262" y="29.9357" width="1.6631" height="1.6631" />
<rect x="4.9893" y="29.9357" width="1.6631" height="1.6631" />
<rect x="6.6524" y="29.9357" width="1.6631" height="1.6631" />
<rect x="9.9786" y="29.9357" width="1.6631" height="1.6631" />
<rect x="13.3048" y="29.9357" width="1.6631" height="1.6631" />
<rect x="14.9679" y="29.9357" width="1.6631" height="1.6631" />
<rect x="19.9571" y="29.9357" width="1.6631" height="1.6631" />
<rect x="26.6095" y="29.9357" width="1.6631" height="1.6631" />
<rect x="28.2726" y="29.9357" width="1.6631" height="1.6631" />
<rect x="29.9357" y="29.9357" width="1.6631" height="1.6631" />
<rect x="33.2619" y="29.9357" width="1.6631" height="1.6631" />
</g>
<g fill="rgb(0%,0%,0%)">
<rect x="0.0000" y="31.5988" width="1.6631" height="1.6631" />
<rect x="9.9786" y="31.5988" width="1.6631" height="1.6631" />
<rect x="13.3048" y="31.5988" width="1.6631" height="1.6631" />
<rect x="23.2833" y="31.5988" width="1.6631" height="1.6631" />
<rect x="24.9464" y="31.5988" width="1.6631" height="1.6631" />
<rect x="31.5988" y="31.5988" width="1.6631" height="1.6631" />
</g>
<g fill="rgb(0%,0%,0%)">
<rect x="0.0000" y="33.2619" width="1.6631" height="1.6631" />
<rect x="1.6631" y="33.2619" width="1.6631" height="1.6631" />
<rect x="3.3262" y="33.2619" width="1.6631" height="1.6631" />
<rect x="4.9893" y="33.2619" width="1.6631" height="1.6631" />
<rect x="6.6524" y="33.2619" width="1.6631" height="1.6631" />
<rect x="8.3155" y="33.2619" width="1.6631" height="1.6631" />
<rect x="9.9786" y="33.2619" width="1.6631" height="1.6631" />
<rect x="13.3048" y="33.2619" width="1.6631" height="1.6631" />
<rect x="14.9679" y="33.2619" width="1.6631" height="1.6631" />
<rect x="16.6310" y="33.2619" width="1.6631" height="1.6631" />
<rect x="19.9571" y="33.2619" width="1.6631" height="1.6631" />
<rect x="23.2833" y="33.2619" width="1.6631" height="1.6631" />
<rect x="24.9464" y="33.2619" width="1.6631" height="1.6631" />
<rect x="31.5988" y="33.2619" width="1.6631" height="1.6631" />
<rect x="33.2619" y="33.2619" width="1.6631" height="1.6631" />
</g>
</svg>
